# xmcd
#
# Track frame offsets:
#	150
#	13840
#	27965
#	38922
#	63411
#	77744
#	91916
#	104993
#	117821
#	128575
#
# Disc length: 1846 seconds
#
# Revision: 1
# Processed by: cddbd v1.4PL0 Copyright (c) Steve Scherf et al.
# Submitted via: audiograbber 1.80
#
DISCID=7e07340a
DTITLE=David - The Underground Album
DYEAR=1900
DGENRE=
TTITLE0=Rock and Roll Fever
TTITLE1=Panheads Forever
TTITLE2=Nigger Fucker
TTITLE3=Coffee
TTITLE4=One Monkey Don't Stop No Show
TTITLE5=One More Time
TTITLE6=Little Susie Shallow Throat
TTITLE7=Pick Em, Lick Em, Stick Em
TTITLE8=Don't Bite The Dick
TTITLE9=Fuckin' In The Butt
EXTD=
EXTT0=
EXTT1=
EXTT2=
EXTT3=
EXTT4=
EXTT5=
EXTT6=
EXTT7=
EXTT8=
EXTT9=
PLAYORDER=
